<?xml version="1.0" encoding="utf-8"?>
<!-- Generator: Adobe Illustrator 21.0.0, SVG Export Plug-In . SVG Version: 6.00 Build 0)  -->
<svg version="1.1" id="Layer_1" xmlns="http://www.w3.org/2000/svg" xmlns:xlink="http://www.w3.org/1999/xlink" x="0px" y="0px"
	 viewBox="0 0 512 512" style="enable-background:new 0 0 512 512;" xml:space="preserve">
<g>
	<path d="M190.4,183.3c4.6,10.5,10.3,20.2,17.1,28.9c10.1,13.1,22.5,24,36.5,31.7c7,3.9,14.4,6.9,22.2,9c7.7,2.1,15.8,3.2,23.9,3.2
		c14.5,0,28.6-3.6,41.3-9.8c9.6-4.7,18.5-10.8,26.5-18.1c12-10.9,22.1-24.5,29.5-39.8c7.4-15.3,12.2-32.4,13.6-50.5l-17-1.4l-17-1.3
		c-0.9,12.1-3.9,23.7-8.5,34.2c-3.4,7.9-7.8,15.2-12.8,21.6c-7.5,9.7-16.5,17.5-26,22.7c-4.8,2.6-9.7,4.6-14.6,6c-5,1.3-10,2-15,2
		c-8.9,0-17.8-2.2-26.4-6.3c-6.4-3.1-12.7-7.4-18.4-12.6c-8.6-7.9-16.2-17.9-21.8-29.5c-5.6-11.5-9.2-24.5-10.2-38.1
		c-0.2-2.4-0.3-4.7-0.3-7c0-11.5,2.1-22,5.9-31.3c5.7-13.9,15-25.2,27.1-33.2c12.1-8,27-12.6,44.1-12.6c11.3,0,21.7,2.1,31,5.9
		c13.9,5.7,25.3,15.2,33.4,27.3c8,12.2,12.7,27.1,12.8,44c0,2.2-0.1,4.5-0.3,6.8l17,1.4l17,1.3c0.2-3.1,0.3-6.3,0.3-9.3
		c0-15.6-2.9-30.4-8.4-43.8c-8.2-20.2-22.1-37.2-39.9-49c-17.8-11.9-39.5-18.6-62.9-18.6c-15.6,0-30.4,2.9-43.8,8.3
		c-20.2,8.1-37.2,21.9-49,39.8c-11.8,17.8-18.5,39.6-18.4,63.2c0,3.1,0.1,6.3,0.3,9.5C180.4,154,184.3,169.3,190.4,183.3z"/>
	<path d="M511.3,452.2c-4.8-26.5-14.9-50.2-29-70.6c-10.6-15.2-23.3-28.6-37.5-40c-21.4-17.1-46.2-29.9-72.5-38.5
		c-26.4-8.5-54.3-12.9-82.2-12.9v-0.1c-24.8,0-49.6,3.4-73.3,10.2c-17.8,5.1-35,12-51,20.9c-24,13.3-45.5,30.9-62.4,52.8
		c-8.4,11-15.7,23-21.6,36c-5.8,13-10.2,27.1-12.9,42c-0.4,2.5-0.7,4.9-0.7,7.4c0,4.3,0.7,8.6,2.1,12.7c1.1,3.1,2.6,6,4.5,8.8
		c2.9,4.1,6.9,7.8,11.7,10.3s10.3,3.8,15.9,3.8h375.4c5,0,9.9-1,14.3-3c3.3-1.5,6.3-3.5,8.8-5.9c3.8-3.6,6.6-7.9,8.4-12.4
		c1.8-4.6,2.7-9.4,2.7-14.2C512,457.1,511.8,454.6,511.3,452.2z M102.4,458c3.9-21.8,12.1-40.7,23.5-57.2
		c8.5-12.3,18.9-23.3,30.8-32.8c17.8-14.3,38.9-25.2,61.7-32.6c22.8-7.4,47.3-11.2,71.6-11.2v-17h0.1v17.1c21.6,0,43.4,3,64,8.9
		c15.4,4.4,30.2,10.4,43.8,17.9c20.4,11.3,38.2,26,51.9,43.8c6.9,8.9,12.7,18.6,17.4,29.1c4.7,10.5,8.3,21.9,10.5,34.1
		c0.1,0.4,0.1,0.9,0.1,1.2c0,0.6-0.1,1-0.1,1.3H102.5c0,0,0-0.1,0-0.1c-0.1-0.3-0.2-0.7-0.2-1.3C102.3,458.8,102.3,458.4,102.4,458z
		"/>
	<path d="M153.7,230.4c-0.1-9.4-7.7-17.1-17.2-17.1H17.1C7.6,213.3,0,221,0,230.4c0,9.4,7.6,17.1,17.1,17.1h119.5
		C146,247.5,153.7,239.9,153.7,230.4z"/>
</g>
</svg>
